<svg id="Capa_1" enable-background="new 0 0 511.989 511.989" height="512" fill="white"  viewBox="0 0 511.989 511.989" width="512" xmlns="http://www.w3.org/2000/svg"><g><path d="m283.008 0h-54.027c-10.924 0-19.811 8.887-19.811 19.81v11.742h-130.063c-11.805 0-21.408 9.604-21.408 21.408v253.608c0 11.804 9.604 21.408 21.408 21.408h29.874v11.742c0 10.923 8.887 19.81 19.81 19.81h35.975l-62.018 107.418c-4.363 7.559-1.765 17.259 5.794 21.624l12.897 7.446c7.575 4.373 17.251 1.783 21.624-5.794l75.456-130.693h14.199v136.631c0 8.729 7.102 15.83 15.83 15.83h14.893c8.729 0 15.83-7.102 15.83-15.83v-136.632h14.199l75.456 130.693c4.364 7.562 14.032 10.179 21.624 5.795l12.896-7.446c7.559-4.364 10.158-14.064 5.795-21.624l-62.018-107.417h35.974c10.924 0 19.811-8.887 19.811-19.81v-11.742h29.874c11.805 0 21.408-9.604 21.408-21.408 0-6.398 0-151.012 0-158.329 0-4.142-3.357-7.5-7.5-7.5s-7.5 3.358-7.5 7.5v85.835l-42.916-42.793c-10.117-10.087-26.653-9.71-36.27 1.007l-35.665 39.746c-3.882 4.325-10.591 4.451-14.633.283l-35.452-36.564c-2.882-2.973-7.63-3.047-10.605-.164-2.974 2.884-3.047 7.632-.164 10.605l35.453 36.565c10.008 10.321 26.835 10.136 36.565-.707l35.665-39.746c3.859-4.298 10.476-4.428 14.514-.403l53.508 53.354v51.312c0 3.533-2.875 6.408-6.408 6.408-14.587 0-337.211 0-353.775 0-3.533 0-6.408-2.875-6.408-6.408v-65.853l106.726-106.727c3.949-3.95 10.368-3.905 14.26.11l45.522 46.951c2.882 2.973 7.63 3.047 10.605.164 2.974-2.883 3.047-7.632.164-10.605l-45.522-46.952c-9.718-10.021-25.756-10.156-35.637-.274l-96.119 96.119v-166.543c0-3.534 2.875-6.408 6.408-6.408h353.775c3.533 0 6.408 2.875 6.408 6.408v60.279c0 4.142 3.357 7.5 7.5 7.5s7.5-3.358 7.5-7.5v-60.279c0-11.805-9.604-21.408-21.408-21.408h-130.063v-11.742c0-10.923-8.887-19.81-19.81-19.81zm-152.935 482.722c-.114.198-.284.328-.504.387-.222.059-.434.031-.63-.083l-12.896-7.446c-.396-.229-.533-.738-.305-1.134l66.348-114.917h19.113zm134.198 13.437c0 .458-.372.83-.83.83h-14.893c-.458 0-.83-.373-.83-.83v-136.631h16.553zm131.98-21.713c.229.396.092.905-.305 1.134l-12.896 7.446c-.195.114-.407.142-.63.083-.22-.059-.39-.189-.504-.387l-71.126-123.193h19.112zm-8.243-146.47v11.742c0 2.607-2.203 4.81-4.811 4.81-10.75 0-243.737 0-254.407 0-2.607 0-4.81-2.203-4.81-4.81v-11.742zm-163.838-308.166c0-2.607 2.203-4.81 4.811-4.81h54.027c2.607 0 4.81 2.203 4.81 4.81v11.742h-63.648z"/><path d="m347.68 124.356c0-19.477-15.846-35.322-35.322-35.322s-35.322 15.846-35.322 35.322 15.846 35.322 35.322 35.322 35.322-15.845 35.322-35.322zm-35.322 20.323c-11.206 0-20.322-9.117-20.322-20.322s9.116-20.322 20.322-20.322 20.322 9.117 20.322 20.322-9.116 20.322-20.322 20.322z"/><path d="m319.858 73.211v-9.232c0-4.142-3.357-7.5-7.5-7.5s-7.5 3.358-7.5 7.5v9.232c0 4.142 3.357 7.5 7.5 7.5s7.5-3.357 7.5-7.5z"/><path d="m304.858 175.501v9.232c0 4.142 3.357 7.5 7.5 7.5s7.5-3.358 7.5-7.5v-9.232c0-4.142-3.357-7.5-7.5-7.5s-7.5 3.358-7.5 7.5z"/><path d="m281.497 93.495c2.929-2.929 2.929-7.678 0-10.606l-6.528-6.528c-2.93-2.929-7.678-2.929-10.607 0s-2.929 7.678 0 10.606l6.528 6.528c2.929 2.929 7.677 2.928 10.607 0z"/><path d="m349.748 172.353c2.93 2.929 7.678 2.929 10.607 0s2.929-7.678 0-10.606l-6.528-6.528c-2.93-2.929-7.678-2.929-10.607 0s-2.929 7.678 0 10.606z"/><path d="m251.981 116.856c-4.143 0-7.5 3.358-7.5 7.5s3.357 7.5 7.5 7.5h9.232c4.143 0 7.5-3.358 7.5-7.5s-3.357-7.5-7.5-7.5z"/><path d="m372.736 131.856c4.143 0 7.5-3.358 7.5-7.5s-3.357-7.5-7.5-7.5h-9.233c-4.143 0-7.5 3.358-7.5 7.5s3.357 7.5 7.5 7.5z"/><path d="m274.968 172.353 6.528-6.528c2.929-2.929 2.929-7.678 0-10.606-2.93-2.929-7.678-2.929-10.607 0l-6.528 6.528c-2.929 2.929-2.929 7.678 0 10.606 2.93 2.929 7.677 2.928 10.607 0z"/><path d="m353.827 93.495 6.528-6.528c2.929-2.929 2.929-7.678 0-10.606-2.93-2.929-7.678-2.929-10.607 0l-6.528 6.528c-2.929 2.929-2.929 7.678 0 10.606 2.929 2.929 7.677 2.928 10.607 0z"/></g></svg>