<svg height="496pt" viewBox="0 0 496 496" width="496pt" fill="white" xmlns="http://www.w3.org/2000/svg"><path d="m248 310.113281 24.023438 6.550781-72.289063 72.289063c-1.308594-31.707031-12.359375-62.546875-31.734375-87.714844v-21.238281h13.03125c10.28125 0 18.96875-7.359375 20.65625-17.503906l4.402344-26.367188c.398437-2.394531 2.445312-4.128906 4.964844-4.128906 11.554687 0 20.945312-9.390625 20.945312-20.945312 0-3.230469-.769531-6.46875-2.207031-9.367188l-13.265625-26.527344c-.351563-.6875-.527344-1.457031-.527344-2.214844v-20.945312h48c17.648438 0 32-14.351562 32-32s-14.351562-32-32-32h-55.03125c-15.921875-27.457031-43.167969-47.535156-75.296875-53.863281 1.457031-3.089844 2.328125-6.503907 2.328125-10.136719 0-13.230469-10.769531-24-24-24s-24 10.769531-24 24c0 3.640625.871094 7.054688 2.328125 10.144531-51.417969 10.128907-90.328125 55.511719-90.328125 109.855469v40c0 22.648438 9.777344 44.175781 26.816406 59.089844l15.832032 13.855468c12.246093 10.71875 19.71875 25.742188 21.070312 41.832032-18.445312 6.558594-31.71875 24.152344-31.71875 44.824218 0 .132813.015625.261719.015625.398438h-.015625v152h16v-116.6875l48 48 8-8 49.855469 49.855469c6.984375 6.992187 16.273437 10.832031 26.144531 10.832031 1.359375 0 2.671875-.246094 4-.390625v16.390625h16v-21.921875c2.183594-1.414063 4.257812-3.023437 6.144531-4.902344l120.886719-120.886719c4.03125-4.03125 6.710938-9.023437 8.023438-14.433593l104.945312 28.617187v-180.945312l-192 52.359375zm-64 85.109375v1.464844l-28.6875-28.6875 8-8-50.054688-50.054688c-1.089843-1.089843-2.234374-2.121093-3.402343-3.089843 15.128906 3.054687 30.488281 4.785156 45.992187 5 18.121094 23.90625 28.152344 53.335937 28.152344 83.367187zm18.207031-212.910156 13.265625 26.527344c.351563.6875.527344 1.457031.527344 2.214844 0 2.730468-2.214844 4.945312-5.03125 4.945312-10.28125 0-18.96875 7.359375-20.65625 17.503906l-4.402344 26.367188c-.398437 2.394531-2.445312 4.128906-4.878906 4.128906h-29.03125v31.703125c-22.183594-.695313-44.078125-4.40625-65.222656-11.277344 11.085937-11.671875 17.222656-26.875 17.222656-43.035156 0-8.558594-4.257812-16.503906-11.375-21.253906l-8.359375-5.578125c-2.671875-1.78125-4.265625-4.75-4.265625-7.949219v-1.960937c0-4.121094 2.625-7.761719 6.527344-9.054688 10.457031-3.488281 17.472656-13.234375 17.472656-24.242188v-19.351562h96v20.945312c0 3.230469.769531 6.46875 2.207031 9.367188zm61.792969-78.3125c8.824219 0 16 7.175781 16 16s-7.175781 16-16 16h-40.28125c-.796875-11.191406-3.238281-21.945312-7.101562-32zm-160-80c0-4.40625 3.59375-8 8-8s8 3.59375 8 8-3.59375 8-8 8-8-3.59375-8-8zm8 24c50.238281 0 91.59375 38.800781 95.664062 88h-191.328124c4.070312-49.199219 45.425781-88 95.664062-88zm-58.816406 196.910156-15.832032-13.855468c-13.566406-11.878907-21.351562-29.023438-21.351562-47.054688v-32h72v19.351562c0 4.121094-2.625 7.761719-6.527344 9.054688-10.457031 3.488281-17.472656 13.234375-17.472656 24.242188v1.960937c0 8.558594 4.257812 16.503906 11.375 21.253906l8.359375 5.578125c2.671875 1.78125 4.265625 4.75 4.265625 7.949219 0 12.441406-4.839844 24.144531-13.640625 32.9375l-.207031.207031c-4.558594-11.246094-11.625-21.445312-20.96875-29.625zm4.074218 121.035156c-5.96875-5.96875-9.257812-13.90625-9.257812-22.34375 0-17.425781 14.175781-31.601562 31.601562-31.601562 8.4375 0 16.375 3.289062 22.34375 9.257812l38.742188 38.742188-44.6875 44.6875zm258.453126-28.96875-120.878907 120.878907c-7.921875 7.921875-21.734375 7.921875-29.65625 0l-49.863281-49.855469 28.6875-28.6875 32.6875 32.6875-6.34375 6.34375 11.3125 11.3125 113.367188-113.367188c2.769531-2.769531 6.441406-4.289062 10.34375-4.289062 8.074218 0 14.632812 6.558594 14.632812 14.632812 0 3.902344-1.519531 7.574219-4.289062 10.34375zm-51.710938-90.863281 128-34.914062v76.800781h16v-81.160156l16-4.359375v139.054687l-16-4.359375v-33.175781h-16v28.800781l-57.679688-15.730469c-4.039062-12.199218-15.417968-21.070312-28.953124-21.070312-7.496094 0-14.511719 2.792969-20.09375 7.6875l-21.273438-5.800781zm0 0"/><path d="m456 264h40v16h-40zm0 0"/><path d="m451.21875 217.585938 31.996094-24.007813 9.601562 12.800781-31.996094 24.007813zm0 0"/><path d="m451.199219 326.398438 9.601562-12.796876 32 24-9.601562 12.796876zm0 0"/></svg>