<svg height='100px' width='100px'  fill="#FFFFFF" xmlns="http://www.w3.org/2000/svg" xmlns:xlink="http://www.w3.org/1999/xlink" version="1.1" x="0px" y="0px" viewBox="0 0 128 128" style="enable-background:new 0 0 128 128;" xml:space="preserve"><g><path d="M28.892334,56.0627441c1.9136963,0,3.6292725-0.8295898,4.8217773-2.1428223C37.0036621,58.2166748,42.1706543,61,48,61   c5.7198486,0,10.8061523-2.6764526,14.1031494-6.8357544c1.178833,1.1729736,2.8033447,1.8984985,4.5975342,1.8984985   c3.6003418,0,6.5187988-2.9185181,6.5187988-6.5187988c0-3.2457886-2.3747559-5.9298096-5.4799805-6.4283447   c1.1223145-0.7159424,2.3312988-1.9451904,3.248291-4.0848389c0.4650879-1.0848389-0.0770264-2.3231812-1.1679688-2.7733765   c-1.1157227-0.4604492-2.5986328-1.7271118-4.21875-4.8702393c-2.3015137-4.4649048-5.545166-6.352356-16.5012207-6.352356   l-0.013916,0.0200806C48.7248535,25.0332642,48.3666992,25,48,25c-7.4448242,0-13.8327637,4.5204468-16.5720215,10.9656982   c-0.5029297-0.1557007-1.0268555-0.2636719-1.5809326-0.2636719c-2.9683838,0-5.3746338,2.40625-5.3746338,5.3745728   c0,1.1040039,0.3349609,2.1289673,0.9057617,2.982605c-1.8051758,1.1591797-3.0046387,3.1799316-3.0046387,5.4847412   C22.3735352,53.1442261,25.2921143,56.0627441,28.892334,56.0627441z M48,59c-5.4299316,0-10.229248-2.7247925-13.123291-6.8726807   c-0.1066895-0.1531982-0.208252-0.3094482-0.3098145-0.4664307c0.1673584-0.0097656,0.3356934-0.017395,0.4990234-0.0358276   c9.3903809-1.0614624,12.0449219-16.2098389,12.0449219-16.2098389l0.0773926-0.0673828   c2.1721191,3.7191772,6.7176514,8.2949829,15.9931641,8.7144775c0.2490234,0.0112915,0.5078125,0.0139771,0.7637939,0.019104   c-0.2103271,3.1230469-1.3167725,5.9970703-3.069458,8.3766479C57.9602051,56.4161987,53.2819824,59,48,59z"></path><path d="M89.6228027,36h17.7543945C108.8256836,36,110,34.8257446,110,33.3771973V21.6228027   C110,20.1742554,108.8256836,19,107.3771973,19H93.267334l13.7893066-7.4111328   c0.4863281-0.2617188,0.6689453-0.8681641,0.4072266-1.3544922c-0.2617188-0.4873047-0.8691406-0.6689453-1.3544922-0.4072266   l-17.3728027,9.3371582C87.7263184,19.5288696,87,20.4868774,87,21.6228027v11.7543945C87,34.8257446,88.1743164,36,89.6228027,36z    M108,24c0,1.1045532-0.8955078,2-2,2h-4.6972656l4-4H106C107.1044922,22,108,22.8953857,108,24z M98.4746094,26h-4.0654297l4-4   h4.0654297L98.4746094,26z M95.5810547,22l-3.9616699,3.9616089C90.6972656,25.7836304,90,24.9741821,90,24   c0-1.1046143,0.8955078-2,2-2H95.5810547z"></path><path d="M113.4580078,49.2529297c-0.3339844-0.171875-0.734375-0.1435547-1.0390625,0.0751953   C112.4001465,49.3409424,110.7392578,50.50354,108,50.7896118v-6.5405884c0-0.3730469-0.2089844-0.7138672-0.5400391-0.8857422   c-0.3320312-0.171875-0.7324219-0.1445312-1.0380859,0.0693359c-0.0214844,0.015625-2.2177734,1.5292969-5.6357422,1.5292969   c-1.5634766,0-2.3632812-0.3984375-3.3759766-0.9042969c-1.2255859-0.6113281-2.6152344-1.3037109-5.3896484-1.3037109   c-1.8320312,0-4.015625,0.6699219-6.4912109,1.9912109C85.203125,44.9189453,85,45.2578125,85,45.6269531v10.3876953   c0,0.3515625,0.1845703,0.6767578,0.4853516,0.8574219c0.3027344,0.1806641,0.6757812,0.1914062,0.9853516,0.0244141   C88.4499512,55.8406982,89.9367676,55.395874,91,55.2299194V61.90625c0,0.3515625,0.1845703,0.6767578,0.4853516,0.8574219   c0.3017578,0.1806641,0.6748047,0.1904297,0.9853516,0.0244141c2.71875-1.4501953,4.5185547-1.7548828,5.5498047-1.7548828   c2.3037109,0,3.3691406,0.53125,4.4970703,1.09375c1.0986328,0.5478516,2.234375,1.1142578,4.2685547,1.1142578   c4.0898438,0,6.6865234-1.8212891,6.7949219-1.8994141C113.84375,61.1542969,114,60.8515625,114,60.5283203V50.1416016   C114,49.7666016,113.7910156,49.4238281,113.4580078,49.2529297z M112,59.9648438   c-0.7949219,0.4345703-2.6640625,1.2763672-5.2138672,1.2763672c-1.5634766,0-2.3632812-0.3984375-3.3759766-0.9042969   c-1.2255859-0.6113281-2.6152344-1.3037109-5.3896484-1.3037109c-1.4599609,0-3.1435547,0.4257812-5.0205078,1.2666016v-5.1178589   c1.6478271,0.1291504,2.5646973,0.5782471,3.5175781,1.0534058c1.0986328,0.5478516,2.234375,1.1142578,4.2685547,1.1142578   c4.0898438,0,6.6865234-1.8212891,6.7949219-1.8994141C107.84375,55.2626953,108,54.9599609,108,54.6367188v-1.8428345   c1.6757812-0.1505127,3.0422363-0.5828857,4-0.9940796V59.9648438z M87,46.2353516   c2.4248047-1.2158203,4.0576172-1.4814453,5.0205078-1.4814453c2.3037109,0,3.3691406,0.53125,4.4970703,1.09375   c1.0986328,0.5478516,2.234375,1.1142578,4.2685547,1.1142578c2.2402344,0,4.0332031-0.546875,5.2138672-1.0537109v4.9024658   v1.0053101v1.005127v1.2521362c-0.7949219,0.4345703-2.6640625,1.2763672-5.2138672,1.2763672   c-1.5634766,0-2.3632812-0.3984375-3.3759766-0.9042969c-1.0720215-0.53479-2.2697754-1.1314697-4.4101562-1.272583   c-0.3063965-0.0202026-0.6320801-0.0311279-0.9794922-0.0311279c-0.0065918,0-0.013916,0.0014648-0.0205078,0.0014648   c-0.3215332,0.0008545-0.6569824,0.0281372-1,0.0700684c-1.2088623,0.1478271-2.5444336,0.5430298-4,1.1950684V46.2353516z"></path><path d="M94.4892578,51.4588013c0.4549561,0.619751,1.1829834,1.0267334,2.0107422,1.0267334   c1.1396484,0,2.0905762-0.767334,2.3914795-1.8101196C98.9550781,50.454895,99,50.2265625,99,49.9855347   c0-0.1047363-0.0183105-0.2043457-0.0307617-0.3056641c-0.0456543-0.3696289-0.1657715-0.7140503-0.3546143-1.015564   c-0.4420166-0.7057495-1.2205811-1.178772-2.114624-1.178772c-1.2077637,0-2.2154541,0.8564453-2.4489746,1.9951782   C94.0175781,49.6437378,94,49.8126221,94,49.9855347c0,0.1952515,0.0275879,0.3831177,0.0698242,0.5654907   C94.1474609,50.8851929,94.2926025,51.190979,94.4892578,51.4588013z"></path><path d="M112.6179199,69.8570557c-0.5610352-0.4807129-1.2561035-0.7216797-1.9519043-0.7216797   c-0.6750488,0-1.3508301,0.2270508-1.9047852,0.682373l-2.1113281,1.7353516   c-0.3581543,0.2943726-0.8071289,0.4549561-1.2700195,0.4549561c-0.0114746,0-0.0229492-0.0001221-0.034668-0.0003052   l-3.3955078-0.05896c-0.0349121-0.0006104-0.0693359-0.0009155-0.104248-0.0009155   c-1.7497559,0.0001221-3.4145508,0.7643433-4.5554199,2.095459l-2.6987305,3.1487427l0.0041504,0.003479l-7.0256348,7.8822021   c-0.7855225,0.8813477-2.1599121,0.8931885-2.9605713,0.0254517L71.072998,70.4326172   C67.2895508,66.3322144,61.9643555,64,56.3852539,64H41.4677734c-7.8457031,0-14.9654541,4.5905762-18.2033691,11.7368774   L13.6906738,96.866394c-1.7629395,3.8908081-1.3491211,8.4220581,1.0894775,11.9291382   C17.0471191,112.0559082,20.7667236,114,24.737793,114h18.2651367L43,104.0136719l-11.7177734-2.6748047   c-0.9111328-0.2080078-1.6591797-0.8134766-2.0527344-1.6621094c-0.3935547-0.8476562-0.3730469-1.8105469,0.0556641-2.640625   l6.3222656-12.2158203c0.2539062-0.4892578,0.8544922-0.6826172,1.3476562-0.4277344   c0.4902344,0.2529297,0.6816406,0.8564453,0.4277344,1.3476562l-6.3212891,12.2148438   c-0.1425781,0.2763672-0.1494141,0.5976562-0.0185547,0.8798828c0.1318359,0.2832031,0.3808594,0.4853516,0.6845703,0.5546875   l12.4951172,2.8515625c0.0126953,0.0028687,0.0223389,0.0111694,0.034668,0.0144653l8.6425781,2.038208   C56.4743652,105.1369019,59,108.3273926,59,112c0,1.1045532-0.8955078,2-2,2h7.1807861   c1.1156006,0,2.0152588-0.9134521,1.9981689-2.0289917L66,100.2347412   c2.354248-3.6516113,1.2692871-10.3828125,1.2692871-10.3828125l12.5981445,11.7929688   c1.5888672,1.4873657,3.6861572,2.3111572,5.8625488,2.3027954c2.7099609-0.010437,5.2537842-1.3078613,6.8532715-3.4954224   l11.3717041-15.5518799l-0.020874-0.0176392l9.0383301-10.8208618c1.0529785-1.260437,0.8964844-3.1330566-0.3505859-4.2015381   L112.6179199,69.8570557z M101.845459,73.947876l0.0695801,0.0006104l3.395752,0.05896   c0.0114746,0.0001831,0.0576172,0.0006104,0.0690918,0.0006104c0.9240723,0,1.8259277-0.3231201,2.5397949-0.9098511   l2.1115723-1.7354126c0.2287598-0.1879883,0.4714355-0.227417,0.6347656-0.227417   c0.1687012,0,0.4187012,0.041687,0.654541,0.2438354c0.4135742,0.3543091,0.4660645,0.9825439,0.1169434,1.4005127   l-7.7946777,9.3319092l-6.2111816-5.1601562l1.3769531-1.6066284   C99.5693359,74.4571533,100.6762695,73.947937,101.845459,73.947876z"></path></g></svg>