<svg id="Layer_3" fill="white" enable-background="new 0 0 64 64" height="512" viewBox="0 0 64 64" width="512" xmlns="http://www.w3.org/2000/svg"><g><path d="m1 61v2h62v-2h-24-30z"/><path d="m36 55c0 1.654 1.346 3 3 3s3-1.346 3-3-1.346-3-3-3-3 1.346-3 3zm4 0c0 .552-.449 1-1 1s-1-.448-1-1 .449-1 1-1 1 .448 1 1z"/><path d="m9 52c-1.654 0-3 1.346-3 3s1.346 3 3 3 3-1.346 3-3-1.346-3-3-3zm0 4c-.551 0-1-.448-1-1s.449-1 1-1 1 .448 1 1-.449 1-1 1z"/><path d="m14 31h2v2h-2z"/><path d="m40 40h14c.552 0 1-.447 1-1v-3.557l6.649 2.493c.114.043.233.064.351.064.201 0 .4-.061.57-.178.269-.187.43-.494.43-.822v-10c0-.328-.161-.635-.43-.822-.27-.187-.615-.23-.921-.114l-6.649 2.493v-3.557c0-.553-.448-1-1-1h-4v-2h3c.552 0 1-.447 1-1v-4c0-.553-.448-1-1-1h-3v-14c0-.553-.448-1-1-1h-4c-.552 0-1 .447-1 1v8h-19.184c-.414-1.161-1.514-2-2.816-2h-10c-1.654 0-3 1.346-3 3s1.346 3 3 3h10c1.302 0 2.402-.839 2.816-2h19.184v4h-18c-.265 0-.52.105-.707.293l-10.754 10.754c-2.538.236-4.539 2.354-4.539 4.953v13h-1c-.552 0-1 .447-1 1v3.09c-2.833.479-5 2.943-5 5.91 0 3.309 2.691 6 6 6 2.967 0 5.431-2.167 5.91-5h18.18c.478 2.833 2.942 5 5.91 5 3.309 0 6-2.691 6-6 0-2.967-2.167-5.431-5-5.91v-3.09c0-.553-.448-1-1-1h-19v-13c0-.479-.089-.932-.215-1.371l8.629-8.629h15.586v2h-4c-.552 0-1 .447-1 1v1h-3c-.552 0-1 .447-1 1v6c0 .553.448 1 1 1h3v5c0 .553.448 1 1 1zm-18-28h-10c-.551 0-1-.448-1-1s.449-1 1-1h10c.551 0 1 .448 1 1s-.449 1-1 1zm39 16.443v7.113l-6-2.25v-2.614zm-9-10.443v2h-2v-2zm-43 41c-2.206 0-4-1.794-4-4s1.794-4 4-4 4 1.794 4 4-1.794 4-4 4zm34-4c0 2.206-1.794 4-4 4s-4-1.794-4-4 1.794-4 4-4 4 1.794 4 4zm-5-5.91c-2.507.423-4.486 2.403-4.91 4.91h-18.18c-.423-2.507-2.403-4.486-4.91-4.91v-2.09h28zm-26-4.09v-13c0-1.654 1.346-3 3-3s3 1.346 3 3v13zm16-25c-.265 0-.52.105-.707.293l-8.494 8.494c-.492-.581-1.099-1.058-1.805-1.367l9.42-9.42h17.586v2zm18-17h2v21h-2zm-5 23h12v12h-12zm-4 6v-4h2v4z"/><path d="m50.447 31.105-6-3c-.31-.154-.678-.14-.973.044-.294.183-.474.504-.474.851v6c0 .347.18.668.474.851.161.099.343.149.526.149.153 0 .306-.035.447-.105l6-3c.339-.17.553-.516.553-.895s-.214-.725-.553-.895zm-5.447 2.277v-2.764l2.764 1.382z"/></g></svg>