<svg id="Capa_1" enable-background="new 0 0 512 512" height="512" viewBox="0 0 512 512" width="512" fill="white" xmlns="http://www.w3.org/2000/svg"><g><path d="m435.876 182h-49.73v-133.691c0-26.68-21.629-48.309-48.31-48.309h-163.673c-26.681 0-48.309 21.629-48.309 48.309v133.691h-49.73c-8.284 0-15 6.716-15 15v162.227c0 51.122 41.591 92.713 92.713 92.713h72.205v30.06h-60c-8.284 0-15 6.716-15 15s6.716 15 15 15h179.916c8.284 0 15-6.716 15-15s-6.716-15-15-15h-60v-30.06h72.205c51.122 0 92.713-41.591 92.713-92.713v-162.227c0-8.284-6.716-15-15-15zm-129.808-123.239c4.908-4.351 12.219-4.916 17.795-1.525 5.408 3.289 8.169 9.928 6.758 16.083-1.543 6.738-7.689 11.681-14.621 11.681-6.175 0-11.845-3.942-14.026-9.706-2.18-5.764-.518-12.445 4.094-16.533zm.422 59.638c4.884-3.985 11.807-4.453 17.216-1.259 5.38 3.177 8.231 9.677 7.004 15.79-1.39 6.92-7.643 12.07-14.71 12.07-6.277 0-11.988-4.06-14.119-9.947-2.127-5.876-.233-12.702 4.609-16.654zm.582 59.551c5.112-3.757 12.163-3.895 17.407-.316 5.275 3.599 7.716 10.421 5.921 16.549-1.855 6.331-7.796 10.817-14.4 10.817-6.415 0-12.204-4.229-14.236-10.294-2.025-6.048.167-12.978 5.308-16.756zm-61.004-119.189c4.921-4.34 12.209-4.923 17.796-1.525 5.408 3.289 8.169 9.927 6.758 16.083-1.543 6.737-7.69 11.681-14.622 11.681-6.176 0-11.848-3.939-14.027-9.706-2.174-5.756-.527-12.458 4.095-16.533zm.422 59.638c4.883-3.985 11.807-4.453 17.216-1.259 5.38 3.177 8.231 9.678 7.004 15.79-1.39 6.918-7.644 12.07-14.71 12.07-6.277 0-11.989-4.06-14.119-9.947-2.127-5.876-.233-12.702 4.609-16.654zm24.008 75.428c-1.711 6.504-7.78 11.173-14.498 11.173-5.885 0-11.312-3.561-13.704-8.925-2.631-5.898-1.073-13.042 3.772-17.315 4.921-4.34 12.209-4.923 17.796-1.525 5.58 3.395 8.289 10.299 6.634 16.592zm-84.651-134.876c4.444-4.074 11.111-5.106 16.56-2.502 5.999 2.868 9.518 9.51 8.372 16.09-1.234 7.097-7.555 12.461-14.779 12.461-5.836 0-11.265-3.511-13.663-8.827-2.625-5.821-1.211-12.893 3.51-17.222zm.968 59.191c4.541-3.487 10.802-4.112 15.92-1.53 5.768 2.91 9.109 9.386 8.069 15.775-1.164 7.165-7.533 12.613-14.804 12.613-6.4 0-12.224-4.23-14.24-10.294-1.974-5.94.082-12.745 5.055-16.564zm23.807 75.177c-1.543 6.737-7.69 11.681-14.622 11.681-5.89 0-11.299-3.566-13.704-8.925-2.649-5.9-1.055-13.036 3.772-17.315 4.908-4.351 12.22-4.916 17.795-1.525 5.408 3.289 8.169 9.928 6.759 16.084zm210.254 165.908c0 34.58-28.133 62.713-62.713 62.713h-204.326c-34.58 0-62.713-28.133-62.713-62.713v-147.227h34.73v25.51h260.292v-25.51h34.73z"/><path d="m125.854 344.638c0 26.68 21.629 48.309 48.309 48.309h163.673c26.681 0 48.309-21.629 48.309-48.309v-77.129h-260.291zm92.73-38.638h23.893c2.416-5.047 7.554-8.541 13.523-8.541 5.968 0 11.107 3.494 13.522 8.541h23.894c8.284 0 15 6.716 15 15s-6.716 15-15 15h-23.894c-2.416 5.047-7.554 8.541-13.522 8.541s-11.107-3.494-13.523-8.541h-23.893c-8.284 0-15-6.716-15-15s6.716-15 15-15z"/></g></svg>