<svg id="Layer_1" enable-background="new 0 0 510 510" height="512" fill="white" viewBox="0 0 510 510" width="512" xmlns="http://www.w3.org/2000/svg"><g><path d="m405 0h-275c-55.141 0-100 44.86-100 100v410h330v-346h120v-89c0-41.355-33.645-75-75-75zm-75 480h-270v-380c0-38.598 31.402-70 70-70h215.041c-9.438 12.544-15.041 28.129-15.041 45zm120-346h-90v-59c0-24.813 20.186-45 45-45s45 20.187 45 45z"/><path d="m90 255h135v30h-135z"/><path d="m90 315h210v30h-210z"/><path d="m90 375h135v30h-135z"/><path d="m435 194c-24.814 0-45 20.187-45 45v199.542l45 67.5 45-67.5v-199.542c0-24.813-20.186-45-45-45zm0 30c8.272 0 15 6.729 15 15v15h-30v-15c0-8.271 6.728-15 15-15zm0 227.958-15-22.5v-145.458h30v145.458z"/><path d="m270 120h-78.517l55.959-31.977-14.885-26.047-112.557 64.319v98.705h150zm-30 75h-90v-45h90z"/></g></svg>